<svg xmlns="http://www.w3.org/2000/svg" width="2039" height="243" viewBox="0 0 2039 243"><rect width="100%" height="100%" fill="#DDDDDD"/><path fill="#999999" d="M824.45 66.385h14.46v88.21h-8.42q-1.95 0-3.26-.64t-2.53-2.17l-46.06-58.8q.37 4.03.37 7.44v54.17h-14.46v-88.21h8.6q1.04 0 1.8.1.76.09 1.34.36.58.28 1.13.79.55.52 1.22 1.38l46.24 59.04q-.18-2.13-.31-4.2-.12-2.08-.12-3.85zm59.42 24.65q6.95 0 12.65 2.26 5.71 2.25 9.76 6.4 4.06 4.15 6.26 10.13 2.19 5.97 2.19 13.36 0 7.44-2.19 13.41-2.2 5.98-6.26 10.19-4.05 4.21-9.76 6.47-5.7 2.26-12.65 2.26-7.02 0-12.75-2.26-5.74-2.26-9.79-6.47-4.06-4.21-6.29-10.19-2.22-5.97-2.22-13.41 0-7.39 2.22-13.36 2.23-5.98 6.29-10.13 4.05-4.15 9.79-6.4 5.73-2.26 12.75-2.26m0 52.89q7.8 0 11.56-5.25 3.75-5.25 3.75-15.37 0-10.13-3.75-15.44-3.76-5.3-11.56-5.3-7.93 0-11.75 5.33-3.81 5.34-3.81 15.41 0 10.06 3.81 15.34 3.82 5.28 11.75 5.28m90.89-77.54v88.21h-16.47v-88.21zm32.39 88.21h-15.07v-62.59h9.21q2.93 0 3.84 2.75l.98 4.64q1.65-1.83 3.45-3.36t3.84-2.62q2.04-1.1 4.39-1.74t5.16-.64q5.91 0 9.73 3.2 3.81 3.2 5.7 8.51 1.46-3.11 3.66-5.34 2.19-2.22 4.82-3.63 2.62-1.4 5.58-2.07t5.95-.67q5.18 0 9.21 1.58 4.02 1.59 6.77 4.64 2.74 3.05 4.18 7.44 1.43 4.39 1.43 10.07v39.83h-15.07v-39.83q0-5.98-2.62-9t-7.69-3.02q-2.31 0-4.3.79-1.98.8-3.47 2.29-1.5 1.5-2.35 3.75-.86 2.26-.86 5.19v39.83h-15.12v-39.83q0-6.29-2.53-9.15-2.54-2.87-7.42-2.87-3.29 0-6.13 1.62-2.83 1.61-5.27 4.42zm120.17-16.16v-10.56q-6.53.31-10.98 1.13-4.46.82-7.14 2.11-2.68 1.28-3.84 2.98-1.16 1.71-1.16 3.73 0 3.96 2.35 5.67 2.34 1.71 6.13 1.71 4.63 0 8.02-1.68 3.38-1.68 6.62-5.09m-31.85-32.88-2.68-4.82q10.8-9.88 25.99-9.88 5.49 0 9.82 1.79 4.33 1.8 7.32 5.01 2.99 3.2 4.54 7.65 1.56 4.45 1.56 9.76v39.53h-6.83q-2.14 0-3.3-.64t-1.83-2.59l-1.34-4.52q-2.38 2.14-4.64 3.75-2.25 1.62-4.69 2.72t-5.22 1.68q-2.77.58-6.13.58-3.96 0-7.32-1.07-3.35-1.07-5.79-3.2-2.44-2.14-3.79-5.31-1.34-3.17-1.34-7.38 0-2.38.79-4.73.8-2.35 2.6-4.48 1.8-2.14 4.66-4.03 2.87-1.89 7.05-3.29 4.18-1.41 9.73-2.29 5.55-.89 12.69-1.07v-3.66q0-6.28-2.69-9.3-2.68-3.02-7.74-3.02-3.66 0-6.07.85-2.41.86-4.24 1.93-1.83 1.06-3.33 1.92-1.49.85-3.32.85-1.59 0-2.69-.82-1.09-.83-1.77-1.92m83.57 16.22q2.81 0 4.88-.76 2.08-.76 3.45-2.11 1.37-1.34 2.08-3.23.7-1.89.7-4.15 0-4.63-2.78-7.35-2.77-2.71-8.33-2.71-5.55 0-8.32 2.71-2.78 2.72-2.78 7.35 0 2.2.7 4.09.71 1.89 2.08 3.26 1.37 1.38 3.48 2.14 2.1.76 4.84.76m17.02 35.63q0-1.83-1.09-2.99-1.1-1.16-2.99-1.8t-4.43-.95q-2.53-.3-5.36-.46-2.84-.15-5.86-.27t-5.89-.49q-2.5 1.4-4.05 3.3-1.56 1.89-1.56 4.39 0 1.64.83 3.08.82 1.43 2.62 2.47t4.66 1.62q2.87.58 7.02.58 4.21 0 7.26-.65 3.05-.64 5.03-1.76 1.98-1.13 2.9-2.69.91-1.55.91-3.38m-2.99-63.26h18v5.61q0 2.68-3.23 3.29l-5.62 1.04q1.29 3.24 1.29 7.08 0 4.63-1.87 8.39-1.86 3.75-5.15 6.37t-7.78 4.06q-4.48 1.43-9.67 1.43-1.83 0-3.53-.18-1.71-.19-3.36-.49-2.93 1.77-2.93 3.96 0 1.89 1.74 2.78 1.74.88 4.61 1.25 2.86.37 6.52.46t7.51.39q3.84.31 7.5 1.07t6.53 2.41q2.86 1.65 4.6 4.48 1.74 2.84 1.74 7.29 0 4.15-2.04 8.06-2.05 3.9-5.92 6.95t-9.51 4.91q-5.65 1.86-12.85 1.86-7.07 0-12.32-1.37-5.24-1.37-8.72-3.66t-5.19-5.28q-1.7-2.99-1.7-6.22 0-4.39 2.65-7.35t7.29-4.73q-2.5-1.28-3.97-3.41-1.46-2.14-1.46-5.62 0-1.4.52-2.89.52-1.5 1.52-2.96 1.01-1.47 2.54-2.78 1.52-1.31 3.59-2.35-4.75-2.56-7.47-6.83-2.71-4.27-2.71-10 0-4.64 1.86-8.39t5.18-6.4q3.33-2.66 7.87-4.06 4.55-1.4 9.91-1.4 4.03 0 7.57.82t6.46 2.41m39.41 21.96h28.43q0-2.93-.83-5.52-.82-2.59-2.47-4.55-1.64-1.95-4.18-3.08-2.53-1.13-5.88-1.13-6.53 0-10.28 3.73-3.75 3.72-4.79 10.55m38.43 9.09h-38.73q.36 4.82 1.7 8.32 1.35 3.51 3.54 5.8 2.2 2.29 5.22 3.42 3.02 1.12 6.68 1.12t6.31-.85 4.64-1.89q1.98-1.04 3.47-1.89 1.5-.86 2.9-.86 1.89 0 2.81 1.41l4.33 5.49q-2.5 2.92-5.61 4.91-3.12 1.98-6.5 3.17-3.39 1.19-6.89 1.68-3.51.49-6.81.49-6.52 0-12.13-2.17-5.62-2.17-9.76-6.41-4.15-4.23-6.53-10.49-2.38-6.25-2.38-14.48 0-6.41 2.07-12.05 2.08-5.64 5.95-9.82t9.46-6.62q5.58-2.44 12.59-2.44 5.92 0 10.92 1.89t8.6 5.52 5.64 8.91q2.05 5.27 2.05 12.04 0 3.42-.73 4.61-.74 1.19-2.81 1.19"/></svg>