<svg xmlns="http://www.w3.org/2000/svg" width="250" height="250" viewBox="0 0 250 250"><rect width="100%" height="100%" fill="#DDDDDD"/><path fill="#999999" d="M69.04 109.185h4.15v25.31h-2.42q-.56 0-.93-.18-.38-.19-.73-.63l-13.21-16.87q.1 1.16.1 2.14v15.54h-4.14v-25.31h2.46q.3 0 .52.03t.38.11q.17.07.33.22t.35.4l13.26 16.94q-.05-.62-.08-1.21-.04-.6-.04-1.1zm17.05 7.07q1.99 0 3.63.65 1.63.65 2.8 1.84 1.16 1.19 1.79 2.9.63 1.72.63 3.84 0 2.13-.63 3.85-.63 1.71-1.79 2.92-1.17 1.21-2.8 1.85-1.64.65-3.63.65-2.02 0-3.66-.65-1.65-.64-2.81-1.85t-1.8-2.92q-.64-1.72-.64-3.85 0-2.12.64-3.84.64-1.71 1.8-2.9t2.81-1.84q1.64-.65 3.66-.65m0 15.18q2.24 0 3.31-1.51 1.08-1.5 1.08-4.41 0-2.9-1.08-4.43-1.07-1.52-3.31-1.52-2.28 0-3.37 1.53-1.1 1.53-1.1 4.42t1.1 4.4q1.09 1.52 3.37 1.52m26.07-22.25v25.31h-4.72v-25.31zm9.29 25.31h-4.32v-17.96h2.64q.84 0 1.11.79l.28 1.33q.47-.52.98-.96.52-.44 1.11-.75.58-.32 1.26-.5.67-.19 1.48-.19 1.69 0 2.79.92 1.09.92 1.63 2.44.42-.89 1.05-1.53t1.39-1.04q.75-.4 1.6-.59.85-.2 1.7-.2 1.49 0 2.65.46 1.15.45 1.94 1.33.79.87 1.2 2.13t.41 2.89v11.43h-4.32v-11.43q0-1.71-.76-2.58-.75-.87-2.2-.87-.67 0-1.23.23-.57.23-1 .66t-.68 1.07q-.24.65-.24 1.49v11.43h-4.34v-11.43q0-1.8-.73-2.62-.72-.83-2.12-.83-.95 0-1.76.47-.82.46-1.52 1.27zm34.48-4.64v-3.03q-1.87.09-3.15.33-1.28.23-2.05.6t-1.1.86-.33 1.07q0 1.13.67 1.62t1.76.49q1.33 0 2.3-.48t1.9-1.46m-9.14-9.43-.77-1.38q3.1-2.84 7.46-2.84 1.57 0 2.82.52 1.24.51 2.1 1.43.85.92 1.3 2.2t.45 2.8v11.34h-1.96q-.62 0-.95-.18-.33-.19-.52-.75l-.39-1.29q-.68.61-1.33 1.07-.65.47-1.35.78-.7.32-1.49.48-.8.17-1.76.17-1.14 0-2.1-.31-.96-.3-1.66-.92-.7-.61-1.09-1.52-.38-.91-.38-2.12 0-.68.22-1.35.23-.68.75-1.29.51-.61 1.34-1.15.82-.55 2.02-.95t2.79-.65q1.59-.26 3.64-.31v-1.05q0-1.8-.77-2.67t-2.22-.87q-1.05 0-1.74.25-.7.24-1.22.55-.53.31-.95.55-.43.25-.96.25-.45 0-.77-.24-.31-.24-.51-.55m23.98 4.65q.8 0 1.4-.21.59-.22.99-.61.39-.38.59-.93.2-.54.2-1.19 0-1.33-.79-2.1-.8-.78-2.39-.78t-2.39.78q-.8.77-.8 2.1 0 .63.21 1.18.2.54.59.93.39.4 1 .62.6.21 1.39.21m4.88 10.23q0-.53-.31-.86-.32-.34-.86-.52t-1.27-.27-1.54-.13q-.81-.05-1.68-.08-.87-.04-1.69-.14-.72.4-1.16.94-.45.55-.45 1.27 0 .47.24.88.23.41.75.71t1.34.46q.82.17 2.01.17 1.21 0 2.08-.19.88-.18 1.45-.5.57-.33.83-.77.26-.45.26-.97m-.86-18.15h5.17v1.61q0 .77-.93.94l-1.61.3q.37.93.37 2.03 0 1.33-.54 2.41-.53 1.07-1.48 1.82-.94.76-2.23 1.17-1.28.41-2.77.41-.53 0-1.02-.05-.49-.06-.96-.14-.84.5-.84 1.13 0 .55.5.8t1.32.36q.82.1 1.87.13t2.16.11q1.1.09 2.15.31t1.87.69 1.32 1.29q.5.81.5 2.09 0 1.19-.58 2.31-.59 1.12-1.7 2-1.11.87-2.73 1.4-1.62.54-3.69.54-2.03 0-3.53-.4-1.51-.39-2.5-1.05-1-.65-1.49-1.51t-.49-1.78q0-1.26.76-2.11t2.09-1.36q-.72-.37-1.14-.98t-.42-1.61q0-.4.15-.83t.44-.85.73-.8q.43-.37 1.03-.67-1.37-.74-2.14-1.96-.78-1.23-.78-2.87 0-1.33.53-2.41.53-1.07 1.49-1.83.95-.77 2.26-1.17 1.3-.4 2.84-.4 1.15 0 2.17.24 1.01.23 1.85.69m11.31 6.3h8.15q0-.84-.23-1.59-.24-.74-.71-1.3t-1.2-.88q-.73-.33-1.69-.33-1.87 0-2.95 1.07-1.07 1.07-1.37 3.03m11.02 2.6h-11.11q.11 1.39.49 2.39.39 1.01 1.02 1.67.63.65 1.49.98.87.32 1.92.32t1.81-.25q.76-.24 1.33-.54t1-.54q.43-.25.83-.25.54 0 .8.41l1.25 1.57q-.72.84-1.61 1.41-.9.57-1.87.91t-1.97.48q-1.01.14-1.96.14-1.87 0-3.48-.62t-2.8-1.84q-1.19-1.21-1.87-3.01-.68-1.79-.68-4.15 0-1.84.59-3.46.6-1.62 1.71-2.82t2.71-1.9 3.61-.7q1.7 0 3.14.55 1.43.54 2.46 1.58 1.04 1.04 1.62 2.56.59 1.51.59 3.45 0 .98-.21 1.32t-.81.34"/></svg>